<?xml version="1.0" standalone="no"?>
<!DOCTYPE svg PUBLIC "-//W3C//DTD SVG 20010904//EN"
 "http://www.w3.org/TR/2001/REC-SVG-20010904/DTD/svg10.dtd">
<svg version="1.0" xmlns="http://www.w3.org/2000/svg"
 width="361.000000pt" height="361.000000pt" viewBox="0 0 361.000000 361.000000"
 preserveAspectRatio="xMidYMid meet">
<metadata>
Created by potrace 1.11, written by Peter Selinger 2001-2013
</metadata>
<g transform="translate(0.000000,361.000000) scale(0.100000,-0.100000)"
fill="#000000" stroke="none">
<path d="M0 1805 l0 -1805 1805 0 1805 0 0 1805 0 1805 -1805 0 -1805 0 0
-1805z m3530 0 l0 -1725 -775 0 c-433 0 -775 4 -775 9 0 4 -9 60 -19 122 -11
63 -23 147 -27 187 -4 40 -9 70 -12 68 -6 -7 15 -228 33 -343 l7 -43 -56 0
-56 0 -2 93 -2 92 -3 -93 -4 -92 -195 0 -194 0 -11 26 c-5 15 -12 24 -15 21
-3 -3 -1 -15 6 -26 l11 -21 -336 0 -335 0 -1 23 -2 22 -4 -22 c-4 -21 -10 -23
-69 -23 -49 0 -63 3 -58 13 6 9 4 9 -7 0 -10 -10 -80 -13 -281 -13 l-268 0 1
225 c0 127 5 225 10 225 5 0 9 10 8 23 0 21 -1 21 -9 2 -5 -11 -9 633 -9 1478
l-1 1497 1725 0 1725 0 0 -1725z"/>
<path d="M721 2445 c-184 -52 -352 -197 -423 -368 -13 -31 -28 -54 -32 -50 -4
4 -4 -1 0 -11 4 -10 3 -21 -3 -25 -12 -8 -56 -139 -49 -149 2 -4 -2 -37 -9
-72 -7 -36 -16 -146 -19 -245 -8 -232 -17 -346 -26 -340 -5 3 -14 38 -20 78
-22 125 0 343 50 506 11 36 18 67 15 69 -6 6 -42 -117 -62 -211 -13 -58 -18
-127 -18 -232 0 -128 3 -159 21 -210 12 -33 24 -90 27 -126 6 -68 35 -159 60
-188 8 -9 18 -43 21 -76 7 -59 7 -60 -26 -83 -18 -12 -53 -41 -78 -63 -37 -34
-38 -37 -9 -16 19 14 58 36 87 50 48 23 51 24 41 5 -6 -11 -13 -17 -16 -14 -3
2 -16 -6 -30 -20 -14 -14 -31 -23 -39 -20 -8 3 -14 1 -14 -4 0 -22 71 1 112
37 9 8 33 15 53 16 30 2 39 -3 55 -29 l19 -30 -25 -37 c-40 -59 -19 -43 32 25
52 69 71 88 91 88 24 0 13 -35 -27 -89 -57 -76 -50 -83 11 -11 51 61 71 70 77
34 3 -19 -7 -36 -75 -125 -27 -34 -33 -50 -32 -88 l2 -46 6 52 c8 68 24 84 49
52 18 -21 18 -25 4 -46 -27 -43 -8 -29 70 49 43 43 71 78 63 78 -24 0 -17 14
14 33 39 23 42 22 69 -16 33 -49 32 -49 -40 -85 -5 -2 -8 5 -9 15 0 15 -3 14
-17 -7 -9 -14 -34 -43 -54 -65 -20 -22 -36 -47 -35 -55 1 -8 -1 -15 -5 -15 -9
0 -32 -33 -42 -60 -4 -11 21 10 56 48 35 37 69 67 76 67 18 0 14 -31 -11 -74
l-22 -39 33 -36 c17 -19 32 -43 32 -54 0 -10 4 -15 10 -12 6 3 10 1 10 -4 0
-11 10 -24 60 -82 23 -26 28 -28 65 -19 26 6 44 5 52 -2 19 -15 58 14 82 60
11 21 36 51 55 66 33 25 37 26 42 9 18 -55 28 -73 59 -103 38 -36 43 -35 116
26 24 20 64 45 89 56 58 25 59 26 33 46 -21 16 -21 22 -15 111 8 104 21 123
45 64 9 -21 16 -33 16 -26 1 22 -24 68 -66 121 -40 50 -54 82 -35 82 13 0 83
-54 116 -89 35 -37 56 -40 55 -8 -1 17 -2 18 -6 4 -5 -20 -24 -18 -31 2 -2 7
5 15 15 17 18 5 19 9 9 37 -13 38 -47 95 -93 156 -35 46 -43 81 -19 81 8 0 17
7 20 16 5 13 9 14 22 3 8 -7 20 -22 26 -33 9 -18 7 -18 -17 4 l-28 25 16 -30
c8 -17 25 -39 38 -50 16 -13 19 -14 11 -3 -11 14 -10 19 12 33 14 10 33 14 45
10 10 -3 22 -1 26 5 9 14 60 4 101 -21 24 -15 38 -38 64 -104 18 -47 37 -88
42 -91 4 -3 -2 19 -14 48 -23 57 -24 71 -11 133 9 39 7 42 -49 110 -39 46 -56
74 -52 85 4 8 16 40 27 70 25 70 19 158 -22 326 -16 65 -32 151 -36 189 -11
120 -55 377 -75 442 -54 176 -190 352 -315 409 -137 62 -361 90 -474 59z m569
-688 c-13 -68 -32 -137 -46 -163 -29 -54 -29 -57 -6 -45 66 35 110 118 141
266 10 50 21 83 24 75 3 -8 8 -58 11 -110 3 -52 8 -125 12 -162 4 -37 4 -74 0
-83 -5 -15 -10 -13 -37 9 -43 36 -96 36 -131 -1 -21 -23 -26 -39 -27 -90 -2
-53 1 -63 18 -72 30 -16 45 -13 75 14 19 17 26 34 26 60 0 19 -4 35 -10 35 -5
0 -9 11 -8 25 3 32 28 33 61 3 25 -23 25 -23 18 -158 -4 -75 -11 -142 -15
-149 -5 -8 1 -23 16 -39 13 -15 32 -38 41 -52 10 -14 35 -47 57 -75 32 -40 37
-52 27 -64 -10 -12 -9 -13 1 -7 7 4 19 2 27 -4 11 -9 12 -17 4 -33 -10 -17 -9
-19 9 -15 26 7 35 -14 17 -39 -8 -10 -11 -28 -8 -42 4 -17 2 -22 -8 -19 -14 5
-23 48 -10 48 4 0 8 10 8 22 2 16 0 19 -6 9 -7 -11 -13 -9 -30 8 -11 11 -26
21 -31 21 -5 0 -10 9 -10 19 0 11 -4 23 -10 26 -6 3 -7 -1 -4 -9 4 -11 0 -16
-10 -16 -10 0 -16 8 -16 21 0 29 -68 109 -92 109 -14 0 -18 5 -14 16 11 29
-88 124 -130 124 -21 0 -36 -37 -24 -59 19 -37 13 -53 -19 -46 -37 8 -100 -9
-134 -35 -22 -18 -60 -29 -44 -14 8 8 -10 24 -52 48 -19 10 -31 14 -27 7 6
-10 -6 -16 -27 -12 -4 1 -37 -15 -72 -34 -105 -59 -110 -50 -122 240 -5 139
-4 151 13 167 18 16 19 15 21 -29 2 -58 24 -83 73 -83 44 0 56 11 66 64 5 32
3 42 -11 52 -15 11 -16 16 -5 29 14 17 46 20 55 5 3 -5 13 -10 22 -10 13 0 13
2 2 17 -8 9 -27 24 -43 34 l-29 17 50 54 c28 29 60 71 72 93 l21 40 -6 -40
c-4 -22 -21 -71 -39 -110 -34 -72 -33 -85 6 -64 19 10 21 9 16 -5 -11 -28 80
40 109 82 28 39 28 25 0 -43 l-17 -40 31 35 c84 97 187 285 192 352 1 13 3 5
5 -16 3 -22 -5 -93 -17 -159z m-826 -183 c9 -25 7 -274 -3 -274 -16 0 -64 72
-78 119 -14 48 -5 129 19 158 15 18 55 16 62 -3z m1163 -394 c17 -116 17 -120
-2 -166 -24 -56 -40 -65 -56 -30 -9 20 -9 35 -1 64 6 20 15 96 18 167 8 148
15 142 41 -35z m-940 23 c-2 -16 -4 -3 -4 27 0 30 2 43 4 28 2 -16 2 -40 0
-55z m-500 -50 c-3 -10 -5 -2 -5 17 0 19 2 27 5 18 2 -10 2 -26 0 -35z m17
-123 c16 -89 14 -118 -3 -54 -13 51 -25 151 -17 143 3 -3 12 -43 20 -89z
m1003 48 c29 -28 29 -48 0 -48 -23 0 -72 52 -60 64 12 12 37 6 60 -16z m-47
-48 c0 -3 -8 -10 -19 -17 -16 -10 -22 -7 -41 19 -22 30 -22 31 -4 45 17 12 21
11 41 -14 13 -15 23 -30 23 -33z m127 18 c34 -33 41 -48 22 -48 -11 0 -69 60
-69 72 0 15 14 8 47 -24z m-341 -20 c5 -8 2 -9 -10 -5 -12 5 -16 3 -13 -5 2
-7 12 -12 21 -12 19 2 21 -11 4 -22 -13 -8 -51 33 -42 47 8 13 31 11 40 -3z
m143 -12 c19 -21 21 -27 11 -46 l-12 -23 -25 26 c-18 18 -23 31 -18 46 8 27
16 27 44 -3z m-213 -58 c-18 -10 -36 -3 -36 14 0 6 7 5 17 -3 15 -12 16 -12
10 5 -6 16 -5 17 8 6 15 -12 15 -14 1 -22z m102 -13 c-3 -3 -9 2 -12 12 -6 14
-5 15 5 6 7 -7 10 -15 7 -18z m-157 -6 c18 -34 -5 -48 -30 -18 -10 13 -17 27
-14 31 9 15 32 8 44 -13z m209 -18 c22 -42 -2 -58 -33 -23 -13 14 -14 21 -5
30 17 17 26 15 38 -7z m274 -21 c-6 -5 -24 21 -24 34 0 6 6 1 14 -10 8 -10 12
-21 10 -24z m116 -22 c0 -12 -17 -9 -28 5 -5 6 -13 23 -16 37 -7 24 -6 24 18
-5 14 -16 26 -33 26 -37z m-651 21 c26 -35 22 -54 -14 -71 -24 -11 -29 -9 -50
18 -30 36 -31 48 -2 67 32 23 40 21 66 -14z m165 8 c8 -14 8 -20 -4 -27 -18
-11 -56 22 -45 40 9 15 35 9 49 -13z m-62 -59 c-17 -17 -47 14 -38 38 6 16 8
16 29 -4 17 -17 19 -24 9 -34z m299 25 c13 -16 12 -17 -3 -4 -10 7 -18 15 -18
17 0 8 8 3 21 -13z m-471 -68 c0 -6 -14 -19 -32 -29 l-31 -19 -28 34 c-16 19
-29 37 -29 42 0 4 15 16 33 27 l32 20 27 -32 c15 -18 28 -38 28 -43z m271 48
c12 -14 12 -16 0 -9 -9 6 -12 5 -9 -5 3 -8 11 -13 17 -11 7 1 10 -2 6 -8 -3
-5 -10 -10 -15 -10 -13 0 -32 39 -25 50 8 13 10 13 26 -7z m113 -5 c8 -13 7
-21 -2 -30 -11 -11 -17 -8 -32 12 -10 13 -16 28 -13 33 8 13 35 4 47 -15z
m126 -23 c7 -14 19 -25 26 -25 7 0 16 -4 19 -10 7 -11 -23 -2 -43 13 -18 14
-35 47 -24 47 5 0 15 -11 22 -25z m-363 -31 l27 -36 -23 -19 c-32 -27 -45 -24
-75 15 l-26 35 26 20 c35 28 38 27 71 -15z m80 17 c10 -16 9 -22 -3 -32 -12
-10 -19 -9 -36 8 -11 12 -17 26 -14 32 11 17 40 13 53 -8z m-344 -30 l26 -39
-36 -22 c-19 -11 -36 -20 -38 -18 -1 2 -14 19 -29 39 l-27 37 28 21 c39 28 47
27 76 -18z m1037 29 c0 -5 -2 -10 -4 -10 -3 0 -8 5 -11 10 -3 6 -1 10 4 10 6
0 11 -4 11 -10z m-592 -28 c2 -7 -4 -15 -13 -18 -21 -8 -40 17 -22 28 15 10
30 5 35 -10z m127 -7 c27 -21 65 -78 65 -98 0 -2 -9 -7 -19 -10 -27 -7 -66 34
-49 51 9 9 8 12 -7 12 -22 0 -55 28 -55 46 0 10 10 19 28 23 2 1 18 -10 37
-24z m-399 -41 c29 -38 29 -37 -19 -65 -14 -8 -23 -6 -39 8 -38 34 -43 54 -17
74 34 26 44 24 75 -17z m235 -6 c18 -24 39 -50 46 -58 25 -27 93 -123 93 -131
0 -3 -7 -13 -17 -20 -13 -11 -17 -11 -21 -1 -2 7 -10 19 -18 26 -11 11 -11 16
-1 19 8 4 7 6 -3 6 -22 1 -52 38 -37 45 7 2 5 5 -5 5 -22 1 -81 77 -72 92 4 7
3 9 -3 6 -6 -4 -16 0 -23 8 -10 12 -10 18 0 30 18 22 25 19 61 -27z m359 30
c0 -6 7 -20 17 -30 9 -10 13 -21 9 -25 -8 -9 -56 49 -49 59 7 12 23 9 23 -4z
m-282 -25 c5 -18 -28 -29 -38 -12 -5 7 -6 17 -3 22 7 12 35 5 41 -10z m252 -9
c21 -21 22 -27 10 -34 -25 -16 -38 -11 -59 19 -27 37 -26 41 2 41 13 0 34 -11
47 -26z m-396 -28 c14 -19 26 -37 26 -40 0 -2 -14 -14 -31 -27 l-31 -21 -28
33 c-36 42 -37 50 -2 71 37 22 36 22 66 -16z m-244 -53 c0 -7 -14 -20 -32 -29
-32 -16 -32 -16 -60 17 -15 19 -28 37 -28 42 0 4 15 16 33 27 l32 20 28 -32
c15 -18 27 -38 27 -45z m431 36 c9 -17 8 -23 -2 -30 -17 -10 -55 24 -45 40 11
18 34 13 47 -10z m-293 -21 c16 -16 15 -28 -3 -28 -8 0 -15 -5 -15 -10 0 -7 6
-7 19 -1 14 8 22 7 32 -5 11 -14 10 -18 -6 -31 -47 -35 -53 -35 -79 0 -33 43
-32 53 2 71 33 19 35 19 50 4z m606 -10 c20 -28 20 -38 1 -38 -8 0 -15 -4 -15
-10 0 -5 -5 -10 -11 -10 -8 0 -8 4 1 15 6 8 8 20 4 27 -5 8 -11 4 -19 -16 -11
-27 -13 -27 -29 -10 -17 17 -16 18 19 32 26 11 33 17 23 23 -9 6 -9 9 -1 9 6
0 19 -10 27 -22z m-266 -29 c11 -16 11 -24 1 -36 -11 -13 -15 -12 -30 9 -13
16 -15 26 -7 35 14 18 21 16 36 -8z m-128 -68 c0 -4 -14 -15 -32 -25 l-32 -19
-28 33 c-15 19 -28 38 -28 42 0 5 14 17 32 28 l31 19 29 -36 c15 -20 28 -39
28 -42z m256 24 c9 11 14 14 12 6 -2 -8 -11 -19 -20 -25 -19 -12 -48 7 -48 31
0 11 6 8 20 -8 20 -24 20 -24 36 -4z m-371 -102 c-35 -31 -46 -29 -75 13 l-24
36 29 25 30 24 33 -38 33 -38 -26 -22z m305 61 c0 -7 -5 -16 -10 -19 -14 -9
-40 13 -40 34 1 12 5 11 20 -8 22 -26 26 -21 8 12 -10 20 -10 21 5 8 10 -7 17
-19 17 -27z m-136 -48 c14 -19 26 -37 26 -40 0 -2 -14 -14 -31 -27 l-31 -21
-28 33 c-36 42 -37 50 -2 71 36 23 36 23 66 -16z m-244 -53 c0 -10 -50 -53
-63 -53 -5 0 -57 74 -57 82 0 3 15 15 33 27 l32 21 27 -33 c15 -17 28 -37 28
-44z m328 52 c-3 -3 -9 2 -12 12 -6 14 -5 15 5 6 7 -7 10 -15 7 -18z m-24 -1
c4 -10 1 -14 -6 -12 -15 5 -23 28 -10 28 5 0 13 -7 16 -16z m-150 -61 l27 -38
-28 -22 c-16 -13 -31 -23 -35 -23 -4 0 -19 16 -35 36 l-27 36 29 24 c17 13 33
24 36 24 3 0 18 -17 33 -37z m-92 -63 l27 -39 -35 -27 c-19 -15 -36 -25 -38
-23 -29 38 -56 77 -56 81 0 6 62 48 70 47 3 0 17 -17 32 -39z m128 -35 c0 -8
-7 -15 -15 -15 -8 0 -15 7 -15 15 0 8 7 15 15 15 8 0 15 -7 15 -15z m189 -41
c14 -12 -19 -1 -35 12 -18 14 -18 14 6 3 14 -6 27 -13 29 -15z m-347 -66 c-7
-7 -12 -8 -12 -2 0 14 12 26 19 19 2 -3 -1 -11 -7 -17z"/>
<path d="M1255 1270 c-3 -5 1 -10 10 -10 9 0 13 5 10 10 -3 6 -8 10 -10 10 -2
0 -7 -4 -10 -10z"/>
<path d="M1180 1065 c7 -8 18 -15 24 -14 7 0 6 2 -2 6 -6 2 -10 9 -6 14 3 5
-2 9 -12 9 -13 0 -14 -3 -4 -15z"/>
<path d="M1113 1043 c9 -9 19 -14 23 -11 10 10 -6 28 -24 28 -15 0 -15 -1 1
-17z"/>
<path d="M1060 1006 c0 -2 7 -9 15 -16 13 -11 14 -10 9 4 -5 14 -24 23 -24 12z"/>
<path d="M790 946 c0 -2 8 -10 18 -17 15 -13 16 -12 3 4 -13 16 -21 21 -21 13z"/>
<path d="M1011 913 c7 -12 15 -20 18 -17 3 2 -3 12 -13 22 -17 16 -18 16 -5
-5z"/>
<path d="M740 879 c0 -5 5 -7 10 -4 6 3 10 8 10 11 0 2 -4 4 -10 4 -5 0 -10
-5 -10 -11z"/>
<path d="M840 881 c0 -5 7 -15 17 -22 15 -13 15 -12 4 9 -12 23 -21 28 -21 13z"/>
<path d="M646 831 c-4 -5 -2 -12 3 -15 5 -4 12 -2 15 3 4 5 2 12 -3 15 -5 4
-12 2 -15 -3z"/>
<path d="M1050 856 c0 -2 7 -9 15 -16 13 -11 14 -10 9 4 -5 14 -24 23 -24 12z"/>
<path d="M818 783 c7 -3 16 -2 19 1 4 3 -2 6 -13 5 -11 0 -14 -3 -6 -6z"/>
<path d="M890 816 c0 -2 8 -10 18 -17 15 -13 16 -12 3 4 -13 16 -21 21 -21 13z"/>
<path d="M550 776 c0 -9 5 -16 10 -16 6 0 10 4 10 9 0 6 -4 13 -10 16 -5 3
-10 -1 -10 -9z"/>
<path d="M1120 770 c0 -11 7 -20 15 -20 13 0 14 4 5 20 -6 11 -13 20 -15 20
-3 0 -5 -9 -5 -20z"/>
<path d="M1170 706 c0 -17 14 -29 23 -20 8 8 -3 34 -14 34 -5 0 -9 -6 -9 -14z"/>
<path d="M720 725 c0 -8 5 -15 10 -15 6 0 10 7 10 15 0 8 -4 15 -10 15 -5 0
-10 -7 -10 -15z"/>
<path d="M1045 730 c3 -5 8 -10 11 -10 2 0 4 5 4 10 0 6 -5 10 -11 10 -5 0 -7
-4 -4 -10z"/>
<path d="M895 680 c-3 -5 1 -10 9 -10 9 0 16 5 16 10 0 6 -4 10 -9 10 -6 0
-13 -4 -16 -10z"/>
<path d="M620 682 c0 -5 6 -16 13 -27 10 -13 16 -15 21 -6 4 6 2 18 -4 26 -13
16 -30 20 -30 7z"/>
<path d="M1080 686 c0 -2 8 -10 18 -17 15 -13 16 -12 3 4 -13 16 -21 21 -21
13z"/>
<path d="M1140 611 c0 -5 5 -13 10 -16 6 -3 10 -2 10 4 0 5 -4 13 -10 16 -5 3
-10 2 -10 -4z"/>
<path d="M972 581 c4 -13 18 -16 19 -4 0 4 -5 9 -11 12 -7 2 -11 -2 -8 -8z"/>
<path d="M876 515 c4 -9 11 -14 16 -13 15 5 11 23 -6 26 -11 2 -14 -2 -10 -13z"/>
<path d="M1050 495 c1 -17 29 -49 37 -41 4 3 -3 16 -15 29 -12 12 -22 17 -22
12z"/>
<path d="M782 463 c2 -10 11 -19 21 -21 16 -3 17 -1 5 17 -16 25 -31 27 -26 4z"/>
<path d="M930 421 c0 -3 12 -19 26 -36 23 -27 25 -28 21 -7 -3 12 0 22 6 22 8
0 7 4 -1 12 -12 12 -52 19 -52 9z"/>
<path d="M872 350 c12 -16 26 -30 30 -30 10 0 3 14 -21 42 -26 30 -33 20 -9
-12z"/>
<path d="M1770 756 c0 -2 8 -10 18 -17 15 -13 16 -12 3 4 -13 16 -21 21 -21
13z"/>
<path d="M1806 701 c4 -13 24 -51 45 -84 22 -33 39 -65 39 -70 0 -6 3 -8 6 -5
7 7 -32 85 -55 111 -8 11 -21 31 -28 45 -11 24 -12 24 -7 3z"/>
<path d="M702 569 c2 -7 10 -15 17 -17 8 -3 12 1 9 9 -2 7 -10 15 -17 17 -8 3
-12 -1 -9 -9z"/>
<path d="M1750 553 c0 -7 5 -15 10 -18 6 -4 10 -57 10 -126 0 -66 4 -118 9
-115 4 3 17 -1 27 -9 32 -24 37 -17 7 9 -27 23 -28 29 -32 127 -2 67 -8 110
-17 123 -8 11 -14 15 -14 9z"/>
<path d="M334 516 c-3 -8 -4 -23 -2 -33 3 -11 6 -6 9 15 6 34 2 42 -7 18z"/>
<path d="M1900 520 c0 -8 5 -22 10 -30 9 -13 10 -13 10 0 0 8 -5 22 -10 30 -9
13 -10 13 -10 0z"/>
<path d="M322 430 c0 -14 2 -19 5 -12 2 6 2 18 0 25 -3 6 -5 1 -5 -13z"/>
<path d="M1427 335 c3 -33 7 -62 9 -64 8 -8 2 74 -7 99 -5 16 -6 4 -2 -35z"/>
<path d="M458 343 c-2 -18 -4 -33 -2 -33 1 0 9 12 19 26 9 15 12 24 7 20 -6
-3 -12 0 -15 6 -2 7 -6 -2 -9 -19z"/>
<path d="M324 318 c3 -9 10 -35 16 -57 10 -38 40 -69 83 -84 12 -5 16 -13 12
-26 -3 -10 -1 -29 5 -42 9 -21 9 -19 4 10 l-6 35 25 -30 c14 -16 29 -26 33
-22 7 8 -59 74 -115 116 -17 13 -31 31 -31 40 -1 9 -8 31 -16 47 -8 17 -12 22
-10 13z"/>
<path d="M1442 220 c1 -25 -2 -54 -7 -65 l-8 -20 17 20 c10 11 15 15 12 8 -4
-6 -1 -15 5 -18 5 -4 8 -12 6 -19 -3 -6 5 -11 18 -11 24 0 23 7 -3 37 -8 10
-21 39 -28 65 l-13 48 1 -45z"/>
<path d="M1739 202 c-24 -25 -31 -35 -15 -22 48 41 68 61 64 66 -2 2 -24 -18
-49 -44z"/>
<path d="M667 145 c-9 -13 -13 -26 -8 -29 5 -3 11 4 14 15 3 12 10 18 16 14 7
-3 8 0 5 9 -7 20 -5 20 -27 -9z"/>
<path d="M986 144 c-5 -14 -4 -15 8 -5 8 7 20 10 26 6 14 -9 13 -45 -2 -45 -6
0 -8 -3 -5 -6 7 -8 37 14 37 27 0 12 -30 39 -45 39 -7 0 -16 -7 -19 -16z"/>
<path d="M1590 99 c0 -5 5 -7 10 -4 6 3 10 8 10 11 0 2 -4 4 -10 4 -5 0 -10
-5 -10 -11z"/>
</g>
</svg>
